<?xml version="1.0" encoding="UTF-8" standalone="no"?>
<!-- Created with Inkscape (http://www.inkscape.org/) -->

<svg
   width="210mm"
   height="297mm"
   viewBox="0 0 210 297"
   version="1.1"
   id="svg5"
   inkscape:version="1.1.1 (3bf5ae0d25, 2021-09-20)"
   sodipodi:docname="unranked icon.svg"
   xmlns:inkscape="http://www.inkscape.org/namespaces/inkscape"
   xmlns:sodipodi="http://sodipodi.sourceforge.net/DTD/sodipodi-0.dtd"
   xmlns="http://www.w3.org/2000/svg"
   xmlns:svg="http://www.w3.org/2000/svg">
  <sodipodi:namedview
     id="namedview7"
     pagecolor="#ffffff"
     bordercolor="#666666"
     borderopacity="1.0"
     inkscape:pageshadow="2"
     inkscape:pageopacity="0.0"
     inkscape:pagecheckerboard="0"
     inkscape:document-units="mm"
     showgrid="false"
     inkscape:zoom="1.877186"
     inkscape:cx="195.23905"
     inkscape:cy="658.69873"
     inkscape:window-width="1920"
     inkscape:window-height="1017"
     inkscape:window-x="-8"
     inkscape:window-y="-8"
     inkscape:window-maximized="1"
     inkscape:current-layer="layer1" />
  <defs
     id="defs2">
    <filter
       inkscape:collect="always"
       style="color-interpolation-filters:sRGB"
       id="filter2336"
       x="-0.023941228"
       y="-0.17674512"
       width="1.0478825"
       height="1.3534902">
      <feGaussianBlur
         inkscape:collect="always"
         stdDeviation="0.56038457"
         id="feGaussianBlur2338" />
    </filter>
    <filter
       inkscape:collect="always"
       style="color-interpolation-filters:sRGB"
       id="filter5370"
       x="-0.12095711"
       y="-0.14327695"
       width="1.2419149"
       height="1.2730925">
      <feGaussianBlur
         inkscape:collect="always"
         stdDeviation="0.36014618"
         id="feGaussianBlur5372" />
    </filter>
    <filter
       inkscape:collect="always"
       style="color-interpolation-filters:sRGB"
       id="filter5752"
       x="-0.12095711"
       y="-0.14327695"
       width="1.2419149"
       height="1.2730925">
      <feGaussianBlur
         inkscape:collect="always"
         stdDeviation="0.36014618"
         id="feGaussianBlur5750" />
    </filter>
  </defs>
  <g
     inkscape:label="Layer 1"
     inkscape:groupmode="layer"
     id="layer1">
    <rect
       style="fill:#0000ff;fill-rule:evenodd;stroke-width:0.228312"
       id="rect2294"
       width="70.364433"
       height="15.296617"
       x="32.952351"
       y="173.01234"
       ry="0.41071874" />
    <path
       style="fill:#0000ff;fill-rule:evenodd;stroke-width:0.264583"
       d="m 28.69563,141.68597 c 0.08274,0 0.159135,0.0441 0.200505,0.11576 l 4.675684,8.09821 c 0.03008,0.0392 0.04806,0.0884 0.04806,0.14159 0,0.12813 -0.103535,0.23151 -0.231511,0.23151 h -0.0026 -9.380821 c -0.08277,0 -0.159135,-0.044 -0.200505,-0.11575 -0.04139,-0.0717 -0.04139,-0.16023 0,-0.23203 l 4.69067,-8.12353 c 0.04137,-0.0717 0.117764,-0.11576 0.200504,-0.11576 z"
       id="path3042" />
    <path
       id="path3235"
       style="fill:none;fill-opacity:1;stroke:#000000;stroke-width:0.196868;stroke-miterlimit:4;stroke-dasharray:none;stroke-opacity:1"
       d="m 48.564175,166.02295 c -0.252,6e-5 -0.45577,0.2051 -0.45577,0.4568 v 6.54356 c 0,0.25209 0.20377,0.45577 0.45577,0.45577 0.25194,0 0.45679,-0.20357 0.45679,-0.45577 v -6.54356 c 0,-0.25174 -0.20485,-0.4568 -0.45679,-0.4568 z m -0.0285,7.9882 c -0.29925,0.0157 -0.53716,0.26262 -0.53716,0.56564 0,0.31281 0.25285,0.56665 0.56565,0.56665 0.31273,0 0.56666,-0.25396 0.56666,-0.56665 0,-0.31278 -0.25387,-0.56564 -0.56666,-0.56564 -0.01,0 -0.0189,-4.9e-4 -0.0285,0 z" />
    <g
       id="g10489"
       inkscape:export-filename="C:\Users\DekyourA\Desktop\g10489.png"
       inkscape:export-xdpi="96"
       inkscape:export-ydpi="96"
       transform="translate(-5.6378716,36.082378)">
      <rect
         style="fill:#4b4b4b;fill-opacity:0;fill-rule:evenodd;stroke-width:0.138218"
         id="rect2212"
         width="42.597916"
         height="9.260417"
         x="57.647232"
         y="140.6649"
         ry="0" />
      <g
         id="g10336">
        <g
           id="g10311"
           transform="translate(-0.33692504,-0.00142321)">
          <text
             xml:space="preserve"
             style="font-style:normal;font-variant:normal;font-weight:normal;font-stretch:normal;font-size:10.5833px;line-height:1.25;font-family:Nunito;-inkscape-font-specification:'Nunito, Normal';font-variant-ligatures:normal;font-variant-caps:normal;font-variant-numeric:normal;font-variant-east-asian:normal;fill:#ffffff;fill-opacity:1;stroke:none;stroke-width:0.264583;filter:url(#filter2336)"
             x="54.221577"
             y="149.24168"
             id="text2334"
             transform="matrix(0.49854945,0,0,0.49854945,37.76757,72.746793)"><tspan
               sodipodi:role="line"
               id="tspan2332"
               style="font-style:normal;font-variant:normal;font-weight:normal;font-stretch:normal;font-size:10.5833px;font-family:Nunito;-inkscape-font-specification:'Nunito, Normal';font-variant-ligatures:normal;font-variant-caps:normal;font-variant-numeric:normal;font-variant-east-asian:normal;fill:#ffffff;fill-opacity:1;stroke-width:0.264583"
               x="54.221577"
               y="149.24168">UNRANKED</tspan></text>
          <text
             xml:space="preserve"
             style="font-style:normal;font-variant:normal;font-weight:normal;font-stretch:normal;font-size:5.2763px;line-height:1.25;font-family:Nunito;-inkscape-font-specification:'Nunito, Normal';font-variant-ligatures:normal;font-variant-caps:normal;font-variant-numeric:normal;font-variant-east-asian:normal;fill:#ffffff;fill-opacity:1;stroke:none;stroke-width:0.131908"
             x="64.799713"
             y="147.15115"
             id="text1574"><tspan
               sodipodi:role="line"
               id="tspan1572"
               style="font-style:normal;font-variant:normal;font-weight:normal;font-stretch:normal;font-size:5.2763px;font-family:Nunito;-inkscape-font-specification:'Nunito, Normal';font-variant-ligatures:normal;font-variant-caps:normal;font-variant-numeric:normal;font-variant-east-asian:normal;fill:#ffffff;fill-opacity:1;stroke-width:0.131908"
               x="64.799713"
               y="147.15115">UNRANKED</tspan></text>
        </g>
        <g
           id="g5884"
           transform="matrix(1.228982,0,0,1.228982,-16.201922,-33.04206)">
          <g
             id="g5368"
             transform="matrix(0.51036518,0,0,0.51036518,34.00921,71.225853)"
             style="filter:url(#filter5370)">
            <path
               style="fill:none;fill-opacity:1;fill-rule:evenodd;stroke:#ffffff;stroke-width:0.200001;stroke-miterlimit:4;stroke-dasharray:none;stroke-opacity:1"
               d="m 56.615162,141.03467 -4.288783,7.42863 h 8.577867 z"
               id="path5362" />
            <path
               d="m 56.38468,143.37997 v 3.32396 c 0,0.12805 0.103749,0.23175 0.231751,0.23175 0.127976,0 0.231725,-0.10364 0.231725,-0.23175 v -3.32396 c 0,-0.12787 -0.103749,-0.23172 -0.231725,-0.23172 -0.128002,3e-5 -0.231751,0.10388 -0.231751,0.23172 z"
               id="path5364"
               style="fill:none;fill-opacity:1;stroke:#ffffff;stroke-width:0.2;stroke-miterlimit:4;stroke-dasharray:none;stroke-opacity:1" />
            <path
               d="m 56.616431,147.20561 c -0.158883,0 -0.287743,0.12878 -0.287743,0.28766 0,0.15889 0.12886,0.28785 0.287743,0.28785 0.158856,0 0.287744,-0.12902 0.287744,-0.28785 0,-0.15888 -0.128861,-0.28766 -0.287744,-0.28766 z"
               id="path5366"
               style="fill:none;fill-opacity:1;stroke:#ffffff;stroke-width:0.2;stroke-miterlimit:4;stroke-dasharray:none;stroke-opacity:1" />
          </g>
          <g
             id="g5272"
             transform="matrix(0.51036518,0,0,0.51036518,34.00921,71.225853)">
            <path
               style="fill:none;fill-opacity:1;fill-rule:evenodd;stroke:#ffffff;stroke-width:0.200001;stroke-miterlimit:4;stroke-dasharray:none;stroke-opacity:1"
               d="m 56.615162,141.03467 -4.288783,7.42863 h 8.577867 z"
               id="path8854" />
            <path
               d="m 56.38468,143.37997 v 3.32396 c 0,0.12805 0.103749,0.23175 0.231751,0.23175 0.127976,0 0.231725,-0.10364 0.231725,-0.23175 v -3.32396 c 0,-0.12787 -0.103749,-0.23172 -0.231725,-0.23172 -0.128002,3e-5 -0.231751,0.10388 -0.231751,0.23172 z"
               id="path8858"
               style="fill:none;fill-opacity:1;stroke:#ffffff;stroke-width:0.2;stroke-miterlimit:4;stroke-dasharray:none;stroke-opacity:1" />
            <path
               d="m 56.616431,147.20561 c -0.158883,0 -0.287743,0.12878 -0.287743,0.28766 0,0.15889 0.12886,0.28785 0.287743,0.28785 0.158856,0 0.287744,-0.12902 0.287744,-0.28785 0,-0.15888 -0.128861,-0.28766 -0.287744,-0.28766 z"
               id="path8860"
               style="fill:none;fill-opacity:1;stroke:#ffffff;stroke-width:0.2;stroke-miterlimit:4;stroke-dasharray:none;stroke-opacity:1" />
          </g>
        </g>
        <g
           id="g5900"
           transform="matrix(1.228982,0,0,1.228982,-16.569385,-33.031059)">
          <g
             id="g5398"
             transform="matrix(0.51036518,0,0,0.51036518,63.341342,71.285887)"
             style="stroke:#ffffff;stroke-opacity:1;filter:url(#filter5752)">
            <path
               style="fill:none;fill-opacity:1;fill-rule:evenodd;stroke:#ffffff;stroke-width:0.200001;stroke-miterlimit:4;stroke-dasharray:none;stroke-opacity:1"
               d="m 56.615162,141.03467 -4.288783,7.42863 h 8.577867 z"
               id="path5392" />
            <path
               d="m 56.38468,143.37997 v 3.32396 c 0,0.12805 0.103749,0.23175 0.231751,0.23175 0.127976,0 0.231725,-0.10364 0.231725,-0.23175 v -3.32396 c 0,-0.12787 -0.103749,-0.23172 -0.231725,-0.23172 -0.128002,3e-5 -0.231751,0.10388 -0.231751,0.23172 z"
               id="path5394"
               style="fill:none;fill-opacity:1;stroke:#ffffff;stroke-width:0.2;stroke-miterlimit:4;stroke-dasharray:none;stroke-opacity:1" />
            <path
               d="m 56.616431,147.20561 c -0.158883,0 -0.287743,0.12878 -0.287743,0.28766 0,0.15889 0.12886,0.28785 0.287743,0.28785 0.158856,0 0.287744,-0.12902 0.287744,-0.28785 0,-0.15888 -0.128861,-0.28766 -0.287744,-0.28766 z"
               id="path5396"
               style="fill:none;fill-opacity:1;stroke:#ffffff;stroke-width:0.2;stroke-miterlimit:4;stroke-dasharray:none;stroke-opacity:1" />
          </g>
          <g
             id="g5390"
             transform="matrix(0.51036518,0,0,0.51036518,63.341342,71.285887)">
            <path
               style="fill:none;fill-opacity:1;fill-rule:evenodd;stroke:#ffffff;stroke-width:0.200001;stroke-miterlimit:4;stroke-dasharray:none;stroke-opacity:1"
               d="m 56.615162,141.03467 -4.288783,7.42863 h 8.577867 z"
               id="path5384" />
            <path
               d="m 56.38468,143.37997 v 3.32396 c 0,0.12805 0.103749,0.23175 0.231751,0.23175 0.127976,0 0.231725,-0.10364 0.231725,-0.23175 v -3.32396 c 0,-0.12787 -0.103749,-0.23172 -0.231725,-0.23172 -0.128002,3e-5 -0.231751,0.10388 -0.231751,0.23172 z"
               id="path5386"
               style="fill:none;fill-opacity:1;stroke:#ffffff;stroke-width:0.2;stroke-miterlimit:4;stroke-dasharray:none;stroke-opacity:1" />
            <path
               d="m 56.616431,147.20561 c -0.158883,0 -0.287743,0.12878 -0.287743,0.28766 0,0.15889 0.12886,0.28785 0.287743,0.28785 0.158856,0 0.287744,-0.12902 0.287744,-0.28785 0,-0.15888 -0.128861,-0.28766 -0.287744,-0.28766 z"
               id="path5388"
               style="fill:none;fill-opacity:1;stroke:#ffffff;stroke-width:0.2;stroke-miterlimit:4;stroke-dasharray:none;stroke-opacity:1" />
          </g>
        </g>
      </g>
    </g>
  </g>
</svg>
